<?xml version="1.0" encoding="UTF-8"?>
<svg id="Layer_1" data-name="Layer 1" xmlns="http://www.w3.org/2000/svg" viewBox="0 0 72 72">
  <defs>
    <style>
      .cls-1 {
        fill: #aa957b;
      }

      .cls-2 {
        fill: #f0f1ed;
      }
    </style>
  </defs>
  <circle class="cls-1" cx="36" cy="36" r="36"/>
  <path class="cls-2" d="m37.66,41.22c.75.51,1.56.95,2.43,1.32.87.36,1.8.65,2.8.85.24.05.36.16.36.35,0,.26-.18.39-.54.39-.82,0-1.97-.36-3.45-1.08-1.23-.6-2.65-1.53-4.24-2.79v2.47s.01,1.14.01,1.14h-7.14v-.53l.02-3.82.04-4.57-.02-7.08h4.71c2.11,0,3.7.06,4.78.18,1.08.12,1.99.34,2.75.66,1.23.52,2.21,1.36,2.93,2.54.66,1.09,1,2.24,1,3.45,0,1.28-.37,2.49-1.11,3.62-1.19,1.82-2.97,2.79-5.33,2.91Zm-1.11-.73h.56c1.61.01,2.96-.44,4.07-1.34.7-.56,1.24-1.27,1.62-2.11.35-.77.53-1.56.53-2.37,0-1.37-.45-2.59-1.33-3.67-.68-.84-1.53-1.43-2.55-1.77-1.02-.34-2.46-.53-4.32-.55l-.11,7.85v2.67c.49.46,1,.88,1.53,1.28Z"/>
</svg>